<svg fill-rule="evenodd" height="66" preserveAspectRatio="xMinYMin meet" version="1.0" viewBox="0 0 64 21" width="200" xmlns="http://www.w3.org/2000/svg" xmlns:xlink="http://www.w3.org/1999/xlink"><title>...</title><desc>...</desc><g clip="0 0 64 21" id="group" transform="scale(1,-1) translate(0,-21)"><g transform=""><g transform=" matrix(1,0,0,-1,0,21)"><g transform=""><g transform=" matrix(1,0,0,1,-20,-27)"><g transform=" matrix(1,0,0,1,20,27)"><g transform=""><g transform=""><g transform=""><path d="M 2.320357 2.137168 C 1.027043 3.10354 0.361367 4.367257 0.361367 6.002655 L 0.361367 6.002655 C 0.361367 8.808942 2.282318 10.462925 5.55364 11.615044 L 5.55364 11.615044 C 7.24636 12.209734 8.406538 12.69292 8.977117 13.046018 L 8.977117 13.046018 C 9.547697 13.417792 9.851911 13.900978 9.851911 14.514252 L 9.851911 14.514252 C 9.851911 15.61062 8.61575 16.372566 6.485492 16.372566 L 6.485492 16.372566 C 4.507578 16.372566 2.79584 15.926642 1.293218 15.03442 L 1.293218 15.03442 C 0.722734 14.7 0 15.090358 0 15.740801 L 0 15.740801 L 0.019019 17.933628 C 0.019019 18.24965 0.190193 18.528412 0.475483 18.676991 L 0.475483 18.676991 C 2.325207 19.636115 4.399929 20.119208 6.643637 20.126456 L 6.643637 20.126456 L 6.743679 20.126456 C 11.524089 20.110938 14.112333 17.829279 14.112333 14.514252 L 14.112333 14.514252 C 14.112333 13.083186 13.731946 11.949557 12.952155 11.113274 L 12.952155 11.113274 C 12.210401 10.276991 10.898068 9.496553 9.0531 8.771681 L 9.0531 8.771681 L 7.835958 8.307173 L 6.561664 7.823987 L 5.629623 7.359292 C 4.887964 6.931858 4.640713 6.523009 4.640713 5.984164 L 4.640713 5.984164 C 4.640713 5.110619 5.629623 4.515929 7.398514 4.515929 L 7.398514 4.515929 C 8.843982 4.515929 10.080238 4.79469 11.164339 5.315137 L 11.164339 5.315137 C 11.734918 5.593805 12.400594 5.184956 12.400594 4.571681 L 12.400594 4.571681 L 12.400594 2.471774 C 12.400594 2.155752 12.210401 1.858407 11.925111 1.728319 L 11.925111 1.728319 C 10.536701 1.059292 8.977117 0.706195 7.22734 0.706195 L 7.22734 0.706195 C 5.268351 0.706195 3.651709 1.189381 2.320357 2.137168 L 2.320357 2.137168 Z " style="stroke: none; stroke-linecap: butt; stroke-width: 1; fill: rgb(100%,13%,0%); fill-rule: evenodd;"/></g><g transform=""><path d="M 26.455964 6.969027 C 25.980386 6.969027 25.600095 7.340708 25.600095 7.80531 L 25.600095 7.80531 L 25.600095 14.60708 C 25.600095 16.205217 24.553938 17.30177 23.032487 17.30177 L 23.032487 17.30177 C 21.491923 17.30177 20.636053 16.335398 20.636053 14.737168 L 20.636053 14.737168 L 20.636053 7.80531 C 20.636053 7.340708 20.255572 6.969027 19.780184 6.969027 L 19.780184 6.969027 L 17.364731 6.969027 C 16.889153 6.969027 16.508862 7.340708 16.527881 7.786726 L 16.527881 7.786726 L 16.527881 15.201677 C 16.527881 18.751327 18.486871 20.851327 21.98633 20.851327 L 21.98633 20.851327 C 24.002377 20.851327 25.390787 20.163717 26.075483 18.844248 L 26.075483 18.844248 C 26.28479 19.420354 26.703215 19.90354 27.330758 20.312296 L 27.330758 20.312296 C 27.920357 20.628319 28.681224 20.795482 29.594057 20.795482 L 29.594057 20.795482 C 30.012577 20.795482 30.373943 20.776991 30.697177 20.739823 L 30.697177 20.739823 C 31.115602 20.665394 31.43893 20.330973 31.43893 19.90354 L 31.43893 19.90354 L 31.43893 17.970703 C 31.43893 17.599115 31.134621 17.30177 30.754235 17.30177 L 30.754235 17.30177 C 29.993462 17.30177 29.727192 16.874243 29.727192 15.79646 L 29.727192 15.79646 L 29.727192 7.80531 C 29.727192 7.340708 29.3469 6.969027 28.871322 6.969027 L 28.871322 6.969027 L 26.455964 6.969027 Z " style="stroke: none; stroke-linecap: butt; stroke-width: 1; fill: rgb(100%,13%,0%); fill-rule: evenodd;"/></g><g transform=""><path d="M 37.924517 9.050442 L 37.924517 8.176991 C 37.924517 7.712389 37.544036 7.340708 37.068648 7.340708 L 37.068648 7.340708 L 34.653195 7.340708 C 34.177807 7.340708 33.797325 7.712389 33.797325 8.176991 L 33.797325 8.176991 L 33.797325 20.107965 C 33.797325 20.554075 34.177807 20.925664 34.615156 20.944248 L 34.615156 20.944248 L 37.030609 20.944248 C 37.506187 20.944248 37.886479 20.572566 37.886479 20.107965 L 37.886479 20.107965 L 37.886479 13.306195 C 37.886479 11.726549 39.046752 10.630088 40.606241 10.611597 L 40.606241 10.611597 C 42.01367 10.611597 43.173848 11.800885 43.173848 13.176106 L 43.173848 13.176106 L 43.173848 20.107965 C 43.173848 20.572566 43.554235 20.944248 44.029718 20.944248 L 44.029718 20.944248 L 46.445171 20.944248 C 46.920749 20.944248 47.30104 20.572566 47.30104 20.107965 L 47.30104 20.107965 L 47.30104 12.693013 C 47.30104 9.143363 45.380089 7.043363 41.975727 7.043363 L 41.975727 7.043363 C 40.073795 7.043363 38.495002 7.861062 37.924517 9.050442 L 37.924517 9.050442 Z " style="stroke: none; stroke-linecap: butt; stroke-width: 1; fill: rgb(100%,13%,0%); fill-rule: evenodd;"/></g><g transform=""><path d="M 56.63962 0 C 56.221195 0 55.878752 0.278761 55.802675 0.687611 L 55.802675 0.687611 L 55.745617 1.040708 L 55.308172 3.456637 L 53.254086 2.044248 L 52.968796 1.839823 C 52.626354 1.616907 52.17008 1.635398 51.884695 1.932743 L 51.884695 1.932743 L 51.656464 2.155752 C 51.371174 2.434513 51.33323 2.899208 51.561367 3.215044 L 51.561367 3.215044 L 51.770484 3.493805 L 53.216143 5.500885 L 50.743536 5.928319 L 50.382264 5.984164 C 49.963649 6.058407 49.678264 6.393013 49.678264 6.80177 L 49.678264 6.80177 L 49.678264 7.099115 C 49.678264 7.507965 49.963649 7.842478 50.382264 7.916907 L 50.382264 7.916907 L 50.743536 7.972566 L 53.216143 8.400093 L 51.75156 10.40708 L 51.542348 10.685841 C 51.314211 11.020354 51.33323 11.466372 51.637444 11.745226 L 51.637444 11.745226 L 51.865581 11.968142 C 52.150776 12.246903 52.626354 12.284071 52.949872 12.061062 L 52.949872 12.061062 L 53.235067 11.856637 L 55.289058 10.444248 L 55.726597 12.860177 L 55.78375 13.213274 C 55.859542 13.622124 56.20208 13.900978 56.620315 13.900978 L 56.620315 13.900978 L 56.924814 13.900978 C 57.343239 13.900978 57.685587 13.622124 57.761569 13.213274 L 57.761569 13.213274 L 57.818722 12.860177 L 58.256262 10.444248 L 60.310253 11.856637 L 60.595542 12.061062 C 60.93789 12.284071 61.394449 12.265487 61.679738 11.968142 L 61.679738 11.968142 L 61.907875 11.745226 C 62.193165 11.466372 62.231013 11.001863 62.002972 10.685841 L 62.002972 10.685841 L 61.831798 10.40708 L 60.38633 8.400093 L 62.858841 7.972566 L 63.220303 7.916907 C 63.638633 7.842478 63.924018 7.507965 63.924018 7.099115 L 63.924018 7.099115 L 63.924018 6.80177 C 63.904903 6.393013 63.60069 6.039823 63.201284 5.984164 L 63.201284 5.984164 L 62.839917 5.928319 L 60.367406 5.500885 L 61.812779 3.493805 L 62.021991 3.215044 C 62.250318 2.880531 62.231013 2.434513 61.926895 2.155752 L 61.926895 2.155752 L 61.698663 1.932743 C 61.413468 1.653982 60.93789 1.616907 60.614371 1.839823 L 60.614371 1.839823 L 60.329177 2.044248 L 58.275186 3.456637 L 57.837837 1.040708 L 57.780684 0.687611 C 57.704701 0.278761 57.362259 0 56.943929 0 L 56.943929 0 L 56.63962 0 Z " style="stroke: none; stroke-linecap: butt; stroke-width: 1; fill: rgb(100%,13%,0%); fill-rule: evenodd;"/></g></g></g></g></g></g></g></g></g></svg>